<svg xmlns="http://www.w3.org/2000/svg" width="24" height="24" viewBox="0 0 24 24" fill="none" stroke="currentColor" stroke-width="2" stroke-linecap="round" stroke-linejoin="round">
  <circle cx="13.5" cy="6.5" r="2.5"/>
  <circle cx="19" cy="11.5" r="2"/>
  <circle cx="6" cy="12.5" r="2.5"/>
  <circle cx="17" cy="17" r="2"/>
  <circle cx="8" cy="18" r="2"/>
  <path d="M12 2a10 10 0 0 0-9.95 11.25c.14 1.57 1.74 2.75 3.3 2.75h.05a2 2 0 0 1 2 1.8 3 3 0 0 0 5.95.5c.17-.65.3-1.3.3-2.05 0-1.5-.5-2.5-1.5-3.5L12 12l2-2c1.24-1.24 3.24-1.24 4.24 0L21 12.76A10 10 0 0 0 12 2Z"/>
</svg>
