<svg xmlns="http://www.w3.org/2000/svg" width="24" height="24" viewBox="0 0 24 24" fill="#FFFFFF">
  <path d="M21 12a9 9 0 0 0-9-9 9.75 9.75 0 0 0-6.74 2.74L3 8V3h5l-2.5 2.5A11.25 11.25 0 0 1 12 2c5.52 0 10 4.48 10 10h-2a8 8 0 0 0-8-8 8 8 0 0 0-8 8H2c0-5.52 4.48-10 10-10 2.76 0 5.26 1.12 7.07 2.93L21 8v5h-5l2.5-2.5A8 8 0 0 1 12 20a8 8 0 0 1-8-8H2c0 5.52 4.48 10 10 10s10-4.48 10-10z"/>
  <path d="M3 12a9 9 0 0 0 9 9 9.75 9.75 0 0 0 6.74-2.74L21 16v5h-5l2.5-2.5A11.25 11.25 0 0 1 12 22C6.48 22 2 17.52 2 12h2a8 8 0 0 0 8 8 8 8 0 0 0 8-8h2c0 5.52-4.48 10-10 10-2.76 0-5.26-1.12-7.07-2.93L3 16v-5h5l-2.5 2.5A8 8 0 0 1 12 8a8 8 0 0 1 8 8h2c0-5.52-4.48-10-10-10S2 10.48 2 16z"/>
</svg>
